<mxfile host="app.diagrams.net" modified="2024-06-11T07:05:55.778Z" agent="Mozilla/5.0 (Windows NT 10.0; Win64; x64; rv:126.0) Gecko/20100101 Firefox/126.0" etag="Ouy5ny4S8jGHcOPwx-5G" version="24.5.2" type="device">
  <diagram name="Page-1" id="8tOrD1pGtj4rSMXXcAgC">
    <mxGraphModel dx="2227" dy="807" grid="1" gridSize="10" guides="1" tooltips="1" connect="1" arrows="1" fold="1" page="1" pageScale="1" pageWidth="827" pageHeight="1169" math="0" shadow="0">
      <root>
        <mxCell id="0" />
        <mxCell id="1" parent="0" />
        <mxCell id="8yJlIOZIeEiCtE3xqD59-679" value="" style="group" parent="1" vertex="1" connectable="0">
          <mxGeometry x="-520" y="20" width="250" height="250" as="geometry" />
        </mxCell>
        <mxCell id="8yJlIOZIeEiCtE3xqD59-680" value="Output_Register" style="rounded=0;whiteSpace=wrap;html=1;fontSize=24;verticalAlign=top;" parent="8yJlIOZIeEiCtE3xqD59-679" vertex="1">
          <mxGeometry width="249.99431831094773" height="250" as="geometry" />
        </mxCell>
        <mxCell id="8yJlIOZIeEiCtE3xqD59-681" style="edgeStyle=orthogonalEdgeStyle;rounded=0;orthogonalLoop=1;jettySize=auto;html=1;exitX=0.5;exitY=1;exitDx=0;exitDy=0;" parent="8yJlIOZIeEiCtE3xqD59-679" source="8yJlIOZIeEiCtE3xqD59-680" target="8yJlIOZIeEiCtE3xqD59-680" edge="1">
          <mxGeometry relative="1" as="geometry" />
        </mxCell>
        <mxCell id="8yJlIOZIeEiCtE3xqD59-682" value="clk_i" style="edgeLabel;html=1;align=left;verticalAlign=middle;resizable=0;points=[];" parent="8yJlIOZIeEiCtE3xqD59-679" vertex="1" connectable="0">
          <mxGeometry x="0.005681689052494221" y="25" as="geometry" />
        </mxCell>
        <mxCell id="8yJlIOZIeEiCtE3xqD59-683" value="reset_i" style="edgeLabel;html=1;align=left;verticalAlign=middle;resizable=0;points=[];" parent="8yJlIOZIeEiCtE3xqD59-679" vertex="1" connectable="0">
          <mxGeometry x="0.005681689052494221" y="75" as="geometry" />
        </mxCell>
        <mxCell id="8yJlIOZIeEiCtE3xqD59-684" value="cs_i" style="edgeLabel;html=1;align=left;verticalAlign=middle;resizable=0;points=[];" parent="8yJlIOZIeEiCtE3xqD59-679" vertex="1" connectable="0">
          <mxGeometry x="0.005681689052494221" y="125" as="geometry" />
        </mxCell>
        <mxCell id="8yJlIOZIeEiCtE3xqD59-685" value="load_i" style="edgeLabel;html=1;align=left;verticalAlign=middle;resizable=0;points=[];" parent="8yJlIOZIeEiCtE3xqD59-679" vertex="1" connectable="0">
          <mxGeometry x="0.005681689052494221" y="175" as="geometry" />
        </mxCell>
        <mxCell id="8yJlIOZIeEiCtE3xqD59-686" value="&lt;div&gt;data_i(8)&lt;/div&gt;" style="edgeLabel;html=1;align=left;verticalAlign=middle;resizable=0;points=[];" parent="8yJlIOZIeEiCtE3xqD59-679" vertex="1" connectable="0">
          <mxGeometry x="0.005681689052494221" y="225" as="geometry" />
        </mxCell>
        <mxCell id="8yJlIOZIeEiCtE3xqD59-687" value="&lt;div&gt;data_o(8)&lt;/div&gt;" style="edgeLabel;html=1;align=right;verticalAlign=middle;resizable=0;points=[];" parent="8yJlIOZIeEiCtE3xqD59-679" vertex="1" connectable="0">
          <mxGeometry x="250" y="125.00000000000006" as="geometry" />
        </mxCell>
        <mxCell id="8yJlIOZIeEiCtE3xqD59-688" value="" style="group" parent="1" vertex="1" connectable="0">
          <mxGeometry x="-249.99827586206902" y="20" width="250" height="250" as="geometry" />
        </mxCell>
        <mxCell id="8yJlIOZIeEiCtE3xqD59-689" value="RAM" style="rounded=0;whiteSpace=wrap;html=1;verticalAlign=top;fontSize=24;" parent="8yJlIOZIeEiCtE3xqD59-688" vertex="1">
          <mxGeometry width="250" height="250" as="geometry" />
        </mxCell>
        <mxCell id="8yJlIOZIeEiCtE3xqD59-690" value="clk_i" style="edgeLabel;html=1;align=left;verticalAlign=middle;resizable=0;points=[];" parent="8yJlIOZIeEiCtE3xqD59-688" vertex="1" connectable="0">
          <mxGeometry x="0.007762450315681235" y="25" as="geometry" />
        </mxCell>
        <mxCell id="8yJlIOZIeEiCtE3xqD59-691" value="cs_i" style="edgeLabel;html=1;align=left;verticalAlign=middle;resizable=0;points=[];" parent="8yJlIOZIeEiCtE3xqD59-688" vertex="1" connectable="0">
          <mxGeometry x="0.007762450315681235" y="75" as="geometry" />
        </mxCell>
        <mxCell id="8yJlIOZIeEiCtE3xqD59-692" value="wr_i" style="edgeLabel;html=1;align=left;verticalAlign=middle;resizable=0;points=[];" parent="8yJlIOZIeEiCtE3xqD59-688" vertex="1" connectable="0">
          <mxGeometry x="0.007762450315681235" y="125" as="geometry" />
        </mxCell>
        <mxCell id="8yJlIOZIeEiCtE3xqD59-693" value="addr_i(8)" style="edgeLabel;html=1;align=left;verticalAlign=middle;resizable=0;points=[];" parent="8yJlIOZIeEiCtE3xqD59-688" vertex="1" connectable="0">
          <mxGeometry x="0.007762450315681235" y="175" as="geometry" />
        </mxCell>
        <mxCell id="8yJlIOZIeEiCtE3xqD59-694" value="&lt;div&gt;data_i(8)&lt;/div&gt;" style="edgeLabel;html=1;align=left;verticalAlign=middle;resizable=0;points=[];" parent="8yJlIOZIeEiCtE3xqD59-688" vertex="1" connectable="0">
          <mxGeometry x="0.007762450315681235" y="225" as="geometry" />
        </mxCell>
        <mxCell id="8yJlIOZIeEiCtE3xqD59-695" value="&lt;div&gt;data_o(8)&lt;/div&gt;" style="edgeLabel;html=1;align=right;verticalAlign=middle;resizable=0;points=[];" parent="8yJlIOZIeEiCtE3xqD59-688" vertex="1" connectable="0">
          <mxGeometry x="249.99969604863207" y="125.00000000000011" as="geometry" />
        </mxCell>
        <mxCell id="8yJlIOZIeEiCtE3xqD59-696" value="" style="group" parent="1" vertex="1" connectable="0">
          <mxGeometry x="19.99571428571423" y="20" width="250.00000000000003" height="250" as="geometry" />
        </mxCell>
        <mxCell id="8yJlIOZIeEiCtE3xqD59-697" value="Address_Decode" style="rounded=0;whiteSpace=wrap;html=1;verticalAlign=top;fontSize=24;" parent="8yJlIOZIeEiCtE3xqD59-696" vertex="1">
          <mxGeometry x="0.004658298292639529" width="249.99534170170736" height="250.00000000000003" as="geometry" />
        </mxCell>
        <mxCell id="8yJlIOZIeEiCtE3xqD59-698" style="edgeStyle=orthogonalEdgeStyle;rounded=0;orthogonalLoop=1;jettySize=auto;html=1;exitX=0.5;exitY=1;exitDx=0;exitDy=0;" parent="8yJlIOZIeEiCtE3xqD59-696" source="8yJlIOZIeEiCtE3xqD59-697" target="8yJlIOZIeEiCtE3xqD59-697" edge="1">
          <mxGeometry relative="1" as="geometry" />
        </mxCell>
        <mxCell id="8yJlIOZIeEiCtE3xqD59-699" value="cs_port_b_o" style="edgeLabel;html=1;align=right;verticalAlign=middle;resizable=0;points=[];" parent="8yJlIOZIeEiCtE3xqD59-696" vertex="1" connectable="0">
          <mxGeometry x="249.99534170170753" y="124.58333333333326" as="geometry" />
        </mxCell>
        <mxCell id="8yJlIOZIeEiCtE3xqD59-700" value="cs_port_a_o" style="edgeLabel;html=1;align=right;verticalAlign=middle;resizable=0;points=[];" parent="8yJlIOZIeEiCtE3xqD59-696" vertex="1" connectable="0">
          <mxGeometry x="249.99534170170753" y="41.66666666666667" as="geometry" />
        </mxCell>
        <mxCell id="8yJlIOZIeEiCtE3xqD59-701" value="&lt;div&gt;cs_ram_o&lt;/div&gt;" style="edgeLabel;html=1;align=right;verticalAlign=middle;resizable=0;points=[];" parent="8yJlIOZIeEiCtE3xqD59-696" vertex="1" connectable="0">
          <mxGeometry x="249.99534170170753" y="208.33333333333334" as="geometry" />
        </mxCell>
        <mxCell id="8yJlIOZIeEiCtE3xqD59-702" value="addr_i(8)" style="edgeLabel;html=1;align=left;verticalAlign=middle;resizable=0;points=[];" parent="8yJlIOZIeEiCtE3xqD59-696" vertex="1" connectable="0">
          <mxGeometry y="125" as="geometry" />
        </mxCell>
        <mxCell id="8yJlIOZIeEiCtE3xqD59-703" value="" style="group" parent="1" vertex="1" connectable="0">
          <mxGeometry x="-520.003" y="290" width="250" height="125" as="geometry" />
        </mxCell>
        <mxCell id="8yJlIOZIeEiCtE3xqD59-704" value="ROM" style="rounded=0;whiteSpace=wrap;html=1;verticalAlign=top;fontSize=24;" parent="8yJlIOZIeEiCtE3xqD59-703" vertex="1">
          <mxGeometry x="0.0063022590655918975" width="249.98960959508122" height="125" as="geometry" />
        </mxCell>
        <mxCell id="8yJlIOZIeEiCtE3xqD59-705" style="edgeStyle=orthogonalEdgeStyle;rounded=0;orthogonalLoop=1;jettySize=auto;html=1;exitX=0.5;exitY=1;exitDx=0;exitDy=0;" parent="8yJlIOZIeEiCtE3xqD59-703" source="8yJlIOZIeEiCtE3xqD59-704" target="8yJlIOZIeEiCtE3xqD59-704" edge="1">
          <mxGeometry relative="1" as="geometry" />
        </mxCell>
        <mxCell id="8yJlIOZIeEiCtE3xqD59-706" value="ir_o(14)" style="edgeLabel;html=1;align=right;verticalAlign=middle;resizable=0;points=[];" parent="8yJlIOZIeEiCtE3xqD59-703" vertex="1" connectable="0">
          <mxGeometry x="250" y="62.49456016621059" as="geometry" />
        </mxCell>
        <mxCell id="8yJlIOZIeEiCtE3xqD59-707" value="pc_i(8)" style="edgeLabel;html=1;align=left;verticalAlign=middle;resizable=0;points=[];" parent="8yJlIOZIeEiCtE3xqD59-703" vertex="1" connectable="0">
          <mxGeometry y="62.5" as="geometry" />
        </mxCell>
        <mxCell id="8yJlIOZIeEiCtE3xqD59-708" value="" style="group" parent="1" vertex="1" connectable="0">
          <mxGeometry x="-250.00365853658548" y="290" width="250" height="250" as="geometry" />
        </mxCell>
        <mxCell id="8yJlIOZIeEiCtE3xqD59-709" value="Data_Multiplexer" style="rounded=0;whiteSpace=wrap;html=1;movable=1;resizable=1;rotatable=1;deletable=1;editable=1;locked=0;connectable=1;verticalAlign=top;fontSize=24;" parent="8yJlIOZIeEiCtE3xqD59-708" vertex="1">
          <mxGeometry x="0.003658483046706351" width="249.9963415169533" height="250.00000000000003" as="geometry" />
        </mxCell>
        <mxCell id="8yJlIOZIeEiCtE3xqD59-710" style="edgeStyle=orthogonalEdgeStyle;rounded=0;orthogonalLoop=1;jettySize=auto;html=1;exitX=0.5;exitY=1;exitDx=0;exitDy=0;movable=1;resizable=1;rotatable=1;deletable=1;editable=1;locked=0;connectable=1;verticalAlign=top;" parent="8yJlIOZIeEiCtE3xqD59-708" source="8yJlIOZIeEiCtE3xqD59-709" target="8yJlIOZIeEiCtE3xqD59-709" edge="1">
          <mxGeometry relative="1" as="geometry" />
        </mxCell>
        <mxCell id="8yJlIOZIeEiCtE3xqD59-711" value="" style="edgeStyle=orthogonalEdgeStyle;rounded=0;orthogonalLoop=1;jettySize=auto;html=1;" parent="8yJlIOZIeEiCtE3xqD59-708" source="8yJlIOZIeEiCtE3xqD59-712" target="8yJlIOZIeEiCtE3xqD59-709" edge="1">
          <mxGeometry relative="1" as="geometry" />
        </mxCell>
        <mxCell id="8yJlIOZIeEiCtE3xqD59-712" value="&lt;div&gt;data_o(8)&lt;/div&gt;" style="edgeLabel;html=1;align=right;verticalAlign=middle;resizable=1;points=[];movable=1;rotatable=1;deletable=1;editable=1;locked=0;connectable=1;" parent="8yJlIOZIeEiCtE3xqD59-708" vertex="1" connectable="0">
          <mxGeometry x="249.99634151695375" y="125" as="geometry" />
        </mxCell>
        <mxCell id="8yJlIOZIeEiCtE3xqD59-713" value="&lt;div&gt;RAM_data_i(8)&lt;/div&gt;" style="edgeLabel;html=1;align=left;verticalAlign=middle;resizable=1;points=[];movable=1;rotatable=1;deletable=1;editable=1;locked=0;connectable=1;" parent="8yJlIOZIeEiCtE3xqD59-708" vertex="1" connectable="0">
          <mxGeometry x="0.009999999999990905" y="50.00333333333333" as="geometry" />
        </mxCell>
        <mxCell id="8yJlIOZIeEiCtE3xqD59-714" value="port_a_data_i(8)" style="edgeLabel;html=1;align=left;verticalAlign=middle;resizable=1;points=[];movable=1;rotatable=1;deletable=1;editable=1;locked=0;connectable=1;" parent="8yJlIOZIeEiCtE3xqD59-708" vertex="1" connectable="0">
          <mxGeometry x="0.009999999999990905" y="86" as="geometry" />
        </mxCell>
        <mxCell id="8yJlIOZIeEiCtE3xqD59-715" value="port_b_data_i(8)" style="edgeLabel;html=1;align=left;verticalAlign=middle;resizable=1;points=[];movable=1;rotatable=1;deletable=1;editable=1;locked=0;connectable=1;" parent="8yJlIOZIeEiCtE3xqD59-708" vertex="1" connectable="0">
          <mxGeometry x="0.009999999999990905" y="122" as="geometry" />
        </mxCell>
        <mxCell id="8yJlIOZIeEiCtE3xqD59-716" value="cs_ram_i" style="edgeLabel;html=1;align=left;verticalAlign=middle;resizable=1;points=[];movable=1;rotatable=1;deletable=1;editable=1;locked=0;connectable=1;" parent="8yJlIOZIeEiCtE3xqD59-708" vertex="1" connectable="0">
          <mxGeometry y="158" as="geometry" />
        </mxCell>
        <mxCell id="8yJlIOZIeEiCtE3xqD59-717" value="cs_port_a_i" style="edgeLabel;html=1;align=left;verticalAlign=middle;resizable=1;points=[];movable=1;rotatable=1;deletable=1;editable=1;locked=0;connectable=1;" parent="8yJlIOZIeEiCtE3xqD59-708" vertex="1" connectable="0">
          <mxGeometry y="193" as="geometry" />
        </mxCell>
        <mxCell id="8yJlIOZIeEiCtE3xqD59-718" value="cs_port_b_i" style="edgeLabel;html=1;align=left;verticalAlign=middle;resizable=1;points=[];movable=1;rotatable=1;deletable=1;editable=1;locked=0;connectable=1;" parent="8yJlIOZIeEiCtE3xqD59-708" vertex="1" connectable="0">
          <mxGeometry y="229.16666666666674" as="geometry" />
        </mxCell>
        <mxCell id="8yJlIOZIeEiCtE3xqD59-719" value="" style="group" parent="1" vertex="1" connectable="0">
          <mxGeometry x="19.98948658824667" y="290" width="250.0022375496843" height="250" as="geometry" />
        </mxCell>
        <mxCell id="8yJlIOZIeEiCtE3xqD59-720" value="NanoProcessor" style="rounded=0;whiteSpace=wrap;html=1;verticalAlign=top;fontSize=24;" parent="8yJlIOZIeEiCtE3xqD59-719" vertex="1">
          <mxGeometry x="0.00223754968430967" width="250" height="250" as="geometry" />
        </mxCell>
        <mxCell id="8yJlIOZIeEiCtE3xqD59-721" value="clk_i" style="edgeLabel;html=1;align=left;verticalAlign=middle;resizable=0;points=[];" parent="8yJlIOZIeEiCtE3xqD59-719" vertex="1" connectable="0">
          <mxGeometry y="40" as="geometry" />
        </mxCell>
        <mxCell id="8yJlIOZIeEiCtE3xqD59-722" value="reset_i" style="edgeLabel;html=1;align=left;verticalAlign=middle;resizable=0;points=[];" parent="8yJlIOZIeEiCtE3xqD59-719" vertex="1" connectable="0">
          <mxGeometry x="0.009999999999990905" y="97" as="geometry" />
        </mxCell>
        <mxCell id="8yJlIOZIeEiCtE3xqD59-723" value="data_i(8)" style="edgeLabel;html=1;align=left;verticalAlign=middle;resizable=0;points=[];" parent="8yJlIOZIeEiCtE3xqD59-719" vertex="1" connectable="0">
          <mxGeometry x="0.009999999999990905" y="153" as="geometry" />
        </mxCell>
        <mxCell id="8yJlIOZIeEiCtE3xqD59-724" value="IR_i(14)" style="edgeLabel;html=1;align=left;verticalAlign=middle;resizable=0;points=[];" parent="8yJlIOZIeEiCtE3xqD59-719" vertex="1" connectable="0">
          <mxGeometry y="210" as="geometry" />
        </mxCell>
        <mxCell id="8yJlIOZIeEiCtE3xqD59-725" value="&lt;div&gt;data_wr_o&lt;/div&gt;" style="edgeLabel;html=1;align=right;verticalAlign=middle;resizable=0;points=[];" parent="8yJlIOZIeEiCtE3xqD59-719" vertex="1" connectable="0">
          <mxGeometry x="250.00193359831644" y="97" as="geometry" />
        </mxCell>
        <mxCell id="8yJlIOZIeEiCtE3xqD59-726" value="PC_o(8)" style="edgeLabel;html=1;align=right;verticalAlign=middle;resizable=0;points=[];" parent="8yJlIOZIeEiCtE3xqD59-719" vertex="1" connectable="0">
          <mxGeometry x="250.00193359831644" y="40.000000000000114" as="geometry" />
        </mxCell>
        <mxCell id="8yJlIOZIeEiCtE3xqD59-727" value="&lt;div&gt;data_o(8)&lt;/div&gt;" style="edgeLabel;html=1;align=right;verticalAlign=middle;resizable=0;points=[];" parent="8yJlIOZIeEiCtE3xqD59-719" vertex="1" connectable="0">
          <mxGeometry x="250.00193359831644" y="153" as="geometry" />
        </mxCell>
        <mxCell id="8yJlIOZIeEiCtE3xqD59-728" value="&lt;div&gt;addr_o(8)&lt;/div&gt;" style="edgeLabel;html=1;align=right;verticalAlign=middle;resizable=0;points=[];" parent="8yJlIOZIeEiCtE3xqD59-719" vertex="1" connectable="0">
          <mxGeometry x="250.00193359831644" y="210.0000000000001" as="geometry" />
        </mxCell>
        <mxCell id="8yJlIOZIeEiCtE3xqD59-729" value="&lt;font style=&quot;font-size: 72px;&quot;&gt;NanoController&lt;/font&gt;" style="rounded=0;whiteSpace=wrap;html=1;verticalAlign=top;" parent="1" vertex="1">
          <mxGeometry x="-770" y="660" width="1930" height="1540" as="geometry" />
        </mxCell>
        <mxCell id="8yJlIOZIeEiCtE3xqD59-730" value="&lt;font style=&quot;font-size: 24px;&quot;&gt;clk_i&lt;/font&gt;" style="text;html=1;align=left;verticalAlign=middle;resizable=0;points=[];autosize=1;strokeColor=none;fillColor=none;flipV=0;flipH=1;" parent="1" vertex="1">
          <mxGeometry x="-760" y="860" width="70" height="40" as="geometry" />
        </mxCell>
        <mxCell id="8yJlIOZIeEiCtE3xqD59-731" value="&lt;font style=&quot;font-size: 24px;&quot;&gt;reset_i&lt;/font&gt;" style="text;html=1;align=left;verticalAlign=middle;resizable=0;points=[];autosize=1;strokeColor=none;fillColor=none;flipV=0;flipH=1;" parent="1" vertex="1">
          <mxGeometry x="-760" y="1177.5" width="90" height="40" as="geometry" />
        </mxCell>
        <mxCell id="8yJlIOZIeEiCtE3xqD59-732" value="&lt;font style=&quot;font-size: 24px;&quot;&gt;port_a_i(8)&lt;/font&gt;" style="text;html=1;align=left;verticalAlign=middle;resizable=0;points=[];autosize=1;strokeColor=none;fillColor=none;flipV=0;flipH=1;" parent="1" vertex="1">
          <mxGeometry x="-760" y="1550" width="140" height="40" as="geometry" />
        </mxCell>
        <mxCell id="8yJlIOZIeEiCtE3xqD59-733" value="&lt;font style=&quot;font-size: 24px;&quot;&gt;port_b_i(8)&lt;/font&gt;" style="text;html=1;align=left;verticalAlign=middle;resizable=0;points=[];autosize=1;strokeColor=none;fillColor=none;flipV=0;flipH=1;" parent="1" vertex="1">
          <mxGeometry x="-760" y="1870" width="140" height="40" as="geometry" />
        </mxCell>
        <mxCell id="8yJlIOZIeEiCtE3xqD59-734" value="&lt;font style=&quot;font-size: 24px;&quot;&gt;port_a_o(8)&lt;/font&gt;" style="text;html=1;align=right;verticalAlign=middle;resizable=0;points=[];autosize=1;strokeColor=none;fillColor=none;" parent="1" vertex="1">
          <mxGeometry x="1020" y="965" width="150" height="40" as="geometry" />
        </mxCell>
        <mxCell id="8yJlIOZIeEiCtE3xqD59-735" value="&lt;font style=&quot;font-size: 24px;&quot;&gt;port_b_o(8)&lt;/font&gt;" style="text;html=1;align=right;verticalAlign=middle;resizable=0;points=[];autosize=1;strokeColor=none;fillColor=none;" parent="1" vertex="1">
          <mxGeometry x="1020" y="1275" width="150" height="40" as="geometry" />
        </mxCell>
        <mxCell id="8yJlIOZIeEiCtE3xqD59-736" value="" style="group" parent="1" vertex="1" connectable="0">
          <mxGeometry x="259.99948658824667" y="1250" width="280.00051341175333" height="250" as="geometry" />
        </mxCell>
        <mxCell id="8yJlIOZIeEiCtE3xqD59-737" value="NanoProcessor" style="rounded=0;whiteSpace=wrap;html=1;verticalAlign=top;fontSize=24;" parent="8yJlIOZIeEiCtE3xqD59-736" vertex="1">
          <mxGeometry x="0.00223754968430967" width="250" height="250" as="geometry" />
        </mxCell>
        <mxCell id="8yJlIOZIeEiCtE3xqD59-738" value="clk_i" style="edgeLabel;html=1;align=left;verticalAlign=middle;resizable=0;points=[];" parent="8yJlIOZIeEiCtE3xqD59-736" vertex="1" connectable="0">
          <mxGeometry y="40" as="geometry" />
        </mxCell>
        <mxCell id="8yJlIOZIeEiCtE3xqD59-739" value="reset_i" style="edgeLabel;html=1;align=left;verticalAlign=middle;resizable=0;points=[];" parent="8yJlIOZIeEiCtE3xqD59-736" vertex="1" connectable="0">
          <mxGeometry x="0.009999999999990905" y="83" as="geometry" />
        </mxCell>
        <mxCell id="8yJlIOZIeEiCtE3xqD59-740" value="data_i(8)" style="edgeLabel;html=1;align=left;verticalAlign=middle;resizable=0;points=[];" parent="8yJlIOZIeEiCtE3xqD59-736" vertex="1" connectable="0">
          <mxGeometry x="0.009999999999990905" y="168" as="geometry" />
        </mxCell>
        <mxCell id="8yJlIOZIeEiCtE3xqD59-741" value="IR_i(14)" style="edgeLabel;html=1;align=left;verticalAlign=middle;resizable=0;points=[];" parent="8yJlIOZIeEiCtE3xqD59-736" vertex="1" connectable="0">
          <mxGeometry y="210" as="geometry" />
        </mxCell>
        <mxCell id="8yJlIOZIeEiCtE3xqD59-742" value="&lt;div&gt;data_wr_o&lt;/div&gt;" style="edgeLabel;html=1;align=right;verticalAlign=middle;resizable=0;points=[];" parent="8yJlIOZIeEiCtE3xqD59-736" vertex="1" connectable="0">
          <mxGeometry x="250.00193359831644" y="135" as="geometry" />
        </mxCell>
        <mxCell id="8yJlIOZIeEiCtE3xqD59-743" value="PC_o(8)" style="edgeLabel;html=1;align=right;verticalAlign=middle;resizable=0;points=[];" parent="8yJlIOZIeEiCtE3xqD59-736" vertex="1" connectable="0">
          <mxGeometry x="250.00193359831644" y="88" as="geometry" />
        </mxCell>
        <mxCell id="8yJlIOZIeEiCtE3xqD59-744" value="&lt;div&gt;data_o(8)&lt;/div&gt;" style="edgeLabel;html=1;align=right;verticalAlign=middle;resizable=0;points=[];" parent="8yJlIOZIeEiCtE3xqD59-736" vertex="1" connectable="0">
          <mxGeometry x="250.00193359831644" y="183" as="geometry" />
        </mxCell>
        <mxCell id="8yJlIOZIeEiCtE3xqD59-745" value="&lt;div&gt;addr_o(8)&lt;/div&gt;" style="edgeLabel;html=1;align=right;verticalAlign=middle;resizable=0;points=[];" parent="8yJlIOZIeEiCtE3xqD59-736" vertex="1" connectable="0">
          <mxGeometry x="250.00193359831644" y="230.0000000000001" as="geometry" />
        </mxCell>
        <mxCell id="8yJlIOZIeEiCtE3xqD59-746" value="restore_i (8)" style="edgeLabel;html=1;align=left;verticalAlign=middle;resizable=0;points=[];" parent="8yJlIOZIeEiCtE3xqD59-736" vertex="1" connectable="0">
          <mxGeometry y="125" as="geometry" />
        </mxCell>
        <mxCell id="8yJlIOZIeEiCtE3xqD59-747" value="PushPop(8)" style="edgeLabel;html=1;align=right;verticalAlign=middle;resizable=0;points=[];" parent="8yJlIOZIeEiCtE3xqD59-736" vertex="1" connectable="0">
          <mxGeometry x="250.00193359831644" y="40" as="geometry" />
        </mxCell>
        <mxCell id="8yJlIOZIeEiCtE3xqD59-748" value="Interupt" style="edgeLabel;html=1;align=left;verticalAlign=middle;resizable=0;points=[];" parent="8yJlIOZIeEiCtE3xqD59-736" vertex="1" connectable="0">
          <mxGeometry y="150" as="geometry" />
        </mxCell>
        <mxCell id="8yJlIOZIeEiCtE3xqD59-749" value="" style="group" parent="1" vertex="1" connectable="0">
          <mxGeometry x="745.001724137931" y="1510" width="250" height="250" as="geometry" />
        </mxCell>
        <mxCell id="8yJlIOZIeEiCtE3xqD59-750" value="RAM" style="rounded=0;whiteSpace=wrap;html=1;verticalAlign=top;fontSize=24;" parent="8yJlIOZIeEiCtE3xqD59-749" vertex="1">
          <mxGeometry width="250" height="250" as="geometry" />
        </mxCell>
        <mxCell id="8yJlIOZIeEiCtE3xqD59-751" value="clk_i" style="edgeLabel;html=1;align=left;verticalAlign=middle;resizable=0;points=[];" parent="8yJlIOZIeEiCtE3xqD59-749" vertex="1" connectable="0">
          <mxGeometry x="0.007762450315681235" y="25" as="geometry" />
        </mxCell>
        <mxCell id="8yJlIOZIeEiCtE3xqD59-752" value="cs_i" style="edgeLabel;html=1;align=left;verticalAlign=middle;resizable=0;points=[];" parent="8yJlIOZIeEiCtE3xqD59-749" vertex="1" connectable="0">
          <mxGeometry x="0.007762450315681235" y="75" as="geometry" />
        </mxCell>
        <mxCell id="8yJlIOZIeEiCtE3xqD59-753" value="wr_i" style="edgeLabel;html=1;align=left;verticalAlign=middle;resizable=0;points=[];" parent="8yJlIOZIeEiCtE3xqD59-749" vertex="1" connectable="0">
          <mxGeometry x="0.007762450315681235" y="125" as="geometry" />
        </mxCell>
        <mxCell id="8yJlIOZIeEiCtE3xqD59-754" value="addr_i(8)" style="edgeLabel;html=1;align=left;verticalAlign=middle;resizable=0;points=[];" parent="8yJlIOZIeEiCtE3xqD59-749" vertex="1" connectable="0">
          <mxGeometry x="0.007762450315681235" y="175" as="geometry" />
        </mxCell>
        <mxCell id="8yJlIOZIeEiCtE3xqD59-755" value="&lt;div&gt;data_i(8)&lt;/div&gt;" style="edgeLabel;html=1;align=left;verticalAlign=middle;resizable=0;points=[];" parent="8yJlIOZIeEiCtE3xqD59-749" vertex="1" connectable="0">
          <mxGeometry x="0.007762450315681235" y="225" as="geometry" />
        </mxCell>
        <mxCell id="8yJlIOZIeEiCtE3xqD59-756" value="&lt;div&gt;data_o(8)&lt;/div&gt;" style="edgeLabel;html=1;align=right;verticalAlign=middle;resizable=0;points=[];" parent="8yJlIOZIeEiCtE3xqD59-749" vertex="1" connectable="0">
          <mxGeometry x="249.99969604863207" y="125.00000000000011" as="geometry" />
        </mxCell>
        <mxCell id="8yJlIOZIeEiCtE3xqD59-757" value="" style="group" parent="1" vertex="1" connectable="0">
          <mxGeometry x="219.99699999999996" y="1000" width="250" height="125" as="geometry" />
        </mxCell>
        <mxCell id="8yJlIOZIeEiCtE3xqD59-758" value="ROM" style="rounded=0;whiteSpace=wrap;html=1;verticalAlign=top;fontSize=24;" parent="8yJlIOZIeEiCtE3xqD59-757" vertex="1">
          <mxGeometry x="0.0063022590655918975" width="249.98960959508122" height="125" as="geometry" />
        </mxCell>
        <mxCell id="8yJlIOZIeEiCtE3xqD59-759" style="edgeStyle=orthogonalEdgeStyle;rounded=0;orthogonalLoop=1;jettySize=auto;html=1;exitX=0.5;exitY=1;exitDx=0;exitDy=0;" parent="8yJlIOZIeEiCtE3xqD59-757" source="8yJlIOZIeEiCtE3xqD59-758" target="8yJlIOZIeEiCtE3xqD59-758" edge="1">
          <mxGeometry relative="1" as="geometry" />
        </mxCell>
        <mxCell id="8yJlIOZIeEiCtE3xqD59-760" value="ir_o(14)" style="edgeLabel;html=1;align=right;verticalAlign=middle;resizable=0;points=[];" parent="8yJlIOZIeEiCtE3xqD59-757" vertex="1" connectable="0">
          <mxGeometry x="250" y="62.49456016621059" as="geometry" />
        </mxCell>
        <mxCell id="8yJlIOZIeEiCtE3xqD59-761" value="pc_i(8)" style="edgeLabel;html=1;align=left;verticalAlign=middle;resizable=0;points=[];" parent="8yJlIOZIeEiCtE3xqD59-757" vertex="1" connectable="0">
          <mxGeometry y="62.5" as="geometry" />
        </mxCell>
        <mxCell id="8yJlIOZIeEiCtE3xqD59-762" value="" style="group" parent="1" vertex="1" connectable="0">
          <mxGeometry x="-440.00428571428574" y="937.5" width="250.00000000000003" height="250" as="geometry" />
        </mxCell>
        <mxCell id="8yJlIOZIeEiCtE3xqD59-763" value="Address_Decode" style="rounded=0;whiteSpace=wrap;html=1;verticalAlign=top;fontSize=24;" parent="8yJlIOZIeEiCtE3xqD59-762" vertex="1">
          <mxGeometry x="0.004658298292639529" width="249.99534170170736" height="250.00000000000003" as="geometry" />
        </mxCell>
        <mxCell id="8yJlIOZIeEiCtE3xqD59-764" style="edgeStyle=orthogonalEdgeStyle;rounded=0;orthogonalLoop=1;jettySize=auto;html=1;exitX=0.5;exitY=1;exitDx=0;exitDy=0;" parent="8yJlIOZIeEiCtE3xqD59-762" source="8yJlIOZIeEiCtE3xqD59-763" target="8yJlIOZIeEiCtE3xqD59-763" edge="1">
          <mxGeometry relative="1" as="geometry" />
        </mxCell>
        <mxCell id="8yJlIOZIeEiCtE3xqD59-765" value="cs_port_b_o" style="edgeLabel;html=1;align=right;verticalAlign=middle;resizable=0;points=[];" parent="8yJlIOZIeEiCtE3xqD59-762" vertex="1" connectable="0">
          <mxGeometry x="249.99534170170753" y="124.58333333333326" as="geometry" />
        </mxCell>
        <mxCell id="8yJlIOZIeEiCtE3xqD59-766" value="cs_port_a_o" style="edgeLabel;html=1;align=right;verticalAlign=middle;resizable=0;points=[];" parent="8yJlIOZIeEiCtE3xqD59-762" vertex="1" connectable="0">
          <mxGeometry x="249.99534170170753" y="41.66666666666667" as="geometry" />
        </mxCell>
        <mxCell id="8yJlIOZIeEiCtE3xqD59-767" value="&lt;div&gt;cs_ram_o&lt;/div&gt;" style="edgeLabel;html=1;align=right;verticalAlign=middle;resizable=0;points=[];" parent="8yJlIOZIeEiCtE3xqD59-762" vertex="1" connectable="0">
          <mxGeometry x="249.99534170170753" y="208.33333333333334" as="geometry" />
        </mxCell>
        <mxCell id="8yJlIOZIeEiCtE3xqD59-768" value="addr_i(8)" style="edgeLabel;html=1;align=left;verticalAlign=middle;resizable=0;points=[];" parent="8yJlIOZIeEiCtE3xqD59-762" vertex="1" connectable="0">
          <mxGeometry y="125" as="geometry" />
        </mxCell>
        <mxCell id="hls_KQ-qskWKPMjdaMdi-22" value="cs_port_c_o" style="edgeLabel;html=1;align=right;verticalAlign=middle;resizable=0;points=[];" vertex="1" connectable="0" parent="8yJlIOZIeEiCtE3xqD59-762">
          <mxGeometry x="249.99534170170753" y="162.50333333333333" as="geometry" />
        </mxCell>
        <mxCell id="8yJlIOZIeEiCtE3xqD59-769" value="" style="group" parent="1" vertex="1" connectable="0">
          <mxGeometry x="-60.003658536585476" y="1570" width="250" height="250" as="geometry" />
        </mxCell>
        <mxCell id="8yJlIOZIeEiCtE3xqD59-770" value="Data_Multiplexer" style="rounded=0;whiteSpace=wrap;html=1;movable=1;resizable=1;rotatable=1;deletable=1;editable=1;locked=0;connectable=1;verticalAlign=top;fontSize=24;" parent="8yJlIOZIeEiCtE3xqD59-769" vertex="1">
          <mxGeometry x="0.003658483046706351" width="249.9963415169533" height="250.00000000000003" as="geometry" />
        </mxCell>
        <mxCell id="8yJlIOZIeEiCtE3xqD59-771" style="edgeStyle=orthogonalEdgeStyle;rounded=0;orthogonalLoop=1;jettySize=auto;html=1;exitX=0.5;exitY=1;exitDx=0;exitDy=0;movable=1;resizable=1;rotatable=1;deletable=1;editable=1;locked=0;connectable=1;verticalAlign=top;" parent="8yJlIOZIeEiCtE3xqD59-769" source="8yJlIOZIeEiCtE3xqD59-770" target="8yJlIOZIeEiCtE3xqD59-770" edge="1">
          <mxGeometry relative="1" as="geometry" />
        </mxCell>
        <mxCell id="8yJlIOZIeEiCtE3xqD59-772" value="" style="edgeStyle=orthogonalEdgeStyle;rounded=0;orthogonalLoop=1;jettySize=auto;html=1;" parent="8yJlIOZIeEiCtE3xqD59-769" source="8yJlIOZIeEiCtE3xqD59-773" target="8yJlIOZIeEiCtE3xqD59-770" edge="1">
          <mxGeometry relative="1" as="geometry" />
        </mxCell>
        <mxCell id="8yJlIOZIeEiCtE3xqD59-773" value="&lt;div&gt;data_o(8)&lt;/div&gt;" style="edgeLabel;html=1;align=right;verticalAlign=middle;resizable=1;points=[];movable=1;rotatable=1;deletable=1;editable=1;locked=0;connectable=1;" parent="8yJlIOZIeEiCtE3xqD59-769" vertex="1" connectable="0">
          <mxGeometry x="249.99634151695375" y="125" as="geometry" />
        </mxCell>
        <mxCell id="8yJlIOZIeEiCtE3xqD59-774" value="&lt;div&gt;RAM_data_i(8)&lt;/div&gt;" style="edgeLabel;html=1;align=left;verticalAlign=middle;resizable=1;points=[];movable=1;rotatable=1;deletable=1;editable=1;locked=0;connectable=1;" parent="8yJlIOZIeEiCtE3xqD59-769" vertex="1" connectable="0">
          <mxGeometry x="0.009999999999990905" y="50.00333333333333" as="geometry" />
        </mxCell>
        <mxCell id="8yJlIOZIeEiCtE3xqD59-775" value="port_a_data_i(8)" style="edgeLabel;html=1;align=left;verticalAlign=middle;resizable=1;points=[];movable=1;rotatable=1;deletable=1;editable=1;locked=0;connectable=1;" parent="8yJlIOZIeEiCtE3xqD59-769" vertex="1" connectable="0">
          <mxGeometry x="0.009999999999990905" y="86" as="geometry" />
        </mxCell>
        <mxCell id="8yJlIOZIeEiCtE3xqD59-776" value="port_b_data_i(8)" style="edgeLabel;html=1;align=left;verticalAlign=middle;resizable=1;points=[];movable=1;rotatable=1;deletable=1;editable=1;locked=0;connectable=1;" parent="8yJlIOZIeEiCtE3xqD59-769" vertex="1" connectable="0">
          <mxGeometry x="0.009999999999990905" y="122" as="geometry" />
        </mxCell>
        <mxCell id="8yJlIOZIeEiCtE3xqD59-777" value="cs_ram_i" style="edgeLabel;html=1;align=left;verticalAlign=middle;resizable=1;points=[];movable=1;rotatable=1;deletable=1;editable=1;locked=0;connectable=1;" parent="8yJlIOZIeEiCtE3xqD59-769" vertex="1" connectable="0">
          <mxGeometry y="158" as="geometry" />
        </mxCell>
        <mxCell id="8yJlIOZIeEiCtE3xqD59-778" value="cs_port_a_i" style="edgeLabel;html=1;align=left;verticalAlign=middle;resizable=1;points=[];movable=1;rotatable=1;deletable=1;editable=1;locked=0;connectable=1;" parent="8yJlIOZIeEiCtE3xqD59-769" vertex="1" connectable="0">
          <mxGeometry y="193" as="geometry" />
        </mxCell>
        <mxCell id="8yJlIOZIeEiCtE3xqD59-779" value="cs_port_b_i" style="edgeLabel;html=1;align=left;verticalAlign=middle;resizable=1;points=[];movable=1;rotatable=1;deletable=1;editable=1;locked=0;connectable=1;" parent="8yJlIOZIeEiCtE3xqD59-769" vertex="1" connectable="0">
          <mxGeometry y="229.16666666666674" as="geometry" />
        </mxCell>
        <mxCell id="8yJlIOZIeEiCtE3xqD59-780" value="" style="endArrow=classic;html=1;rounded=0;exitX=0.004;exitY=0.543;exitDx=0;exitDy=0;exitPerimeter=0;entryX=0;entryY=0;entryDx=0;entryDy=0;entryPerimeter=0;fillColor=#60a917;strokeColor=#2D7600;" parent="1" source="8yJlIOZIeEiCtE3xqD59-732" target="8yJlIOZIeEiCtE3xqD59-775" edge="1">
          <mxGeometry width="50" height="50" relative="1" as="geometry">
            <mxPoint x="-510" y="1600" as="sourcePoint" />
            <mxPoint x="-460" y="1550" as="targetPoint" />
            <Array as="points">
              <mxPoint x="-360" y="1570" />
              <mxPoint x="-360" y="1656" />
            </Array>
          </mxGeometry>
        </mxCell>
        <mxCell id="8yJlIOZIeEiCtE3xqD59-781" value="&lt;div data-darkreader-inline-bgcolor=&quot;&quot; data-darkreader-inline-color=&quot;&quot; style=&quot;color: rgb(204, 204, 204); background-color: rgb(31, 31, 31); font-family: &amp;quot;Droid Sans Mono&amp;quot;, &amp;quot;monospace&amp;quot;, monospace; font-weight: normal; font-size: 14px; line-height: 19px; white-space: pre; --darkreader-inline-color: #c8c3bc; --darkreader-inline-bgcolor: #17191a;&quot;&gt;&lt;div&gt;&lt;span data-darkreader-inline-color=&quot;&quot; style=&quot;color: rgb(204, 204, 204); --darkreader-inline-color: #c8c3bc;&quot;&gt;loc_port_a_i&lt;/span&gt;&lt;/div&gt;&lt;/div&gt;" style="edgeLabel;html=1;align=center;verticalAlign=middle;resizable=0;points=[];" parent="8yJlIOZIeEiCtE3xqD59-780" vertex="1" connectable="0">
          <mxGeometry x="-0.0701" relative="1" as="geometry">
            <mxPoint as="offset" />
          </mxGeometry>
        </mxCell>
        <mxCell id="8yJlIOZIeEiCtE3xqD59-782" value="" style="endArrow=classic;html=1;rounded=0;exitX=-0.008;exitY=0.55;exitDx=0;exitDy=0;exitPerimeter=0;entryX=0;entryY=0;entryDx=0;entryDy=0;entryPerimeter=0;fillColor=#1ba1e2;strokeColor=#006EAF;" parent="1" source="8yJlIOZIeEiCtE3xqD59-733" target="8yJlIOZIeEiCtE3xqD59-776" edge="1">
          <mxGeometry width="50" height="50" relative="1" as="geometry">
            <mxPoint x="-611" y="1582" as="sourcePoint" />
            <mxPoint x="-340" y="1621" as="targetPoint" />
            <Array as="points">
              <mxPoint x="-340" y="1890" />
              <mxPoint x="-340" y="1692" />
            </Array>
          </mxGeometry>
        </mxCell>
        <mxCell id="8yJlIOZIeEiCtE3xqD59-783" value="&lt;div data-darkreader-inline-bgcolor=&quot;&quot; data-darkreader-inline-color=&quot;&quot; style=&quot;color: rgb(204, 204, 204); background-color: rgb(31, 31, 31); font-family: &amp;quot;Droid Sans Mono&amp;quot;, &amp;quot;monospace&amp;quot;, monospace; font-weight: normal; font-size: 14px; line-height: 19px; white-space: pre; --darkreader-inline-color: #c8c3bc; --darkreader-inline-bgcolor: #17191a;&quot;&gt;&lt;div&gt;&lt;span data-darkreader-inline-color=&quot;&quot; style=&quot;color: rgb(204, 204, 204); --darkreader-inline-color: #c8c3bc;&quot;&gt;loc_port_b_i&lt;/span&gt;&lt;/div&gt;&lt;/div&gt;" style="edgeLabel;html=1;align=center;verticalAlign=middle;resizable=0;points=[];" parent="8yJlIOZIeEiCtE3xqD59-782" vertex="1" connectable="0">
          <mxGeometry x="-0.0184" relative="1" as="geometry">
            <mxPoint as="offset" />
          </mxGeometry>
        </mxCell>
        <mxCell id="8yJlIOZIeEiCtE3xqD59-784" value="" style="endArrow=classic;html=1;rounded=0;exitX=0.996;exitY=0.537;exitDx=0;exitDy=0;exitPerimeter=0;entryX=-0.004;entryY=0.714;entryDx=0;entryDy=0;entryPerimeter=0;fillColor=#ffe6cc;strokeColor=#d79b00;" parent="1" source="8yJlIOZIeEiCtE3xqD59-737" target="8yJlIOZIeEiCtE3xqD59-812" edge="1">
          <mxGeometry width="50" height="50" relative="1" as="geometry">
            <mxPoint x="-260" y="886" as="sourcePoint" />
            <mxPoint x="-150" y="1295" as="targetPoint" />
            <Array as="points">
              <mxPoint x="630" y="1384" />
              <mxPoint x="630" y="1349" />
            </Array>
          </mxGeometry>
        </mxCell>
        <mxCell id="8yJlIOZIeEiCtE3xqD59-785" value="&lt;div data-darkreader-inline-bgcolor=&quot;&quot; data-darkreader-inline-color=&quot;&quot; style=&quot;color: rgb(204, 204, 204); background-color: rgb(31, 31, 31); font-family: &amp;quot;Droid Sans Mono&amp;quot;, &amp;quot;monospace&amp;quot;, monospace; font-weight: normal; font-size: 14px; line-height: 19px; white-space: pre; --darkreader-inline-color: #c8c3bc; --darkreader-inline-bgcolor: #17191a;&quot;&gt;&lt;div&gt;&lt;span data-darkreader-inline-color=&quot;&quot; style=&quot;color: rgb(204, 204, 204); --darkreader-inline-color: #c8c3bc;&quot;&gt;loc_wr&lt;/span&gt;&lt;/div&gt;&lt;/div&gt;" style="edgeLabel;html=1;align=center;verticalAlign=middle;resizable=0;points=[];" parent="8yJlIOZIeEiCtE3xqD59-784" vertex="1" connectable="0">
          <mxGeometry x="-0.4994" relative="1" as="geometry">
            <mxPoint as="offset" />
          </mxGeometry>
        </mxCell>
        <mxCell id="8yJlIOZIeEiCtE3xqD59-786" value="" style="endArrow=classic;html=1;rounded=0;entryX=-0.003;entryY=0.713;entryDx=0;entryDy=0;entryPerimeter=0;fillColor=#ffe6cc;strokeColor=#d79b00;" parent="1" target="8yJlIOZIeEiCtE3xqD59-821" edge="1">
          <mxGeometry width="50" height="50" relative="1" as="geometry">
            <mxPoint x="610" y="1350" as="sourcePoint" />
            <mxPoint x="-151" y="1418" as="targetPoint" />
            <Array as="points">
              <mxPoint x="610" y="1038" />
            </Array>
          </mxGeometry>
        </mxCell>
        <mxCell id="8yJlIOZIeEiCtE3xqD59-787" value="" style="endArrow=classic;html=1;rounded=0;fillColor=#d80073;strokeColor=#A50040;exitX=1;exitY=0.5;exitDx=0;exitDy=0;" parent="1" source="8yJlIOZIeEiCtE3xqD59-770" edge="1">
          <mxGeometry width="50" height="50" relative="1" as="geometry">
            <mxPoint x="210" y="1695" as="sourcePoint" />
            <mxPoint x="260" y="1420" as="targetPoint" />
            <Array as="points">
              <mxPoint x="210" y="1695" />
              <mxPoint x="210" y="1420" />
            </Array>
          </mxGeometry>
        </mxCell>
        <mxCell id="8yJlIOZIeEiCtE3xqD59-788" value="&lt;div data-darkreader-inline-bgcolor=&quot;&quot; data-darkreader-inline-color=&quot;&quot; style=&quot;color: rgb(204, 204, 204); background-color: rgb(31, 31, 31); font-family: &amp;quot;Droid Sans Mono&amp;quot;, &amp;quot;monospace&amp;quot;, monospace; font-weight: normal; font-size: 14px; line-height: 19px; white-space: pre; --darkreader-inline-color: #c8c3bc; --darkreader-inline-bgcolor: #17191a;&quot;&gt;&lt;div&gt;&lt;span data-darkreader-inline-color=&quot;&quot; style=&quot;color: rgb(204, 204, 204); --darkreader-inline-color: #c8c3bc;&quot;&gt;loc_data_i&lt;/span&gt;&lt;/div&gt;&lt;/div&gt;" style="edgeLabel;html=1;align=center;verticalAlign=middle;resizable=0;points=[];" parent="8yJlIOZIeEiCtE3xqD59-787" vertex="1" connectable="0">
          <mxGeometry x="0.2627" y="-1" relative="1" as="geometry">
            <mxPoint as="offset" />
          </mxGeometry>
        </mxCell>
        <mxCell id="8yJlIOZIeEiCtE3xqD59-789" value="" style="endArrow=classic;html=1;rounded=0;exitX=0.991;exitY=0.356;exitDx=0;exitDy=0;exitPerimeter=0;entryX=0;entryY=0.5;entryDx=0;entryDy=0;fillColor=#d80073;strokeColor=#A50040;" parent="1" source="8yJlIOZIeEiCtE3xqD59-737" target="8yJlIOZIeEiCtE3xqD59-758" edge="1">
          <mxGeometry width="50" height="50" relative="1" as="geometry">
            <mxPoint x="500" y="1000" as="sourcePoint" />
            <mxPoint x="550" y="950" as="targetPoint" />
            <Array as="points">
              <mxPoint x="560" y="1339" />
              <mxPoint x="560" y="990" />
              <mxPoint x="200" y="990" />
              <mxPoint x="200" y="1063" />
            </Array>
          </mxGeometry>
        </mxCell>
        <mxCell id="8yJlIOZIeEiCtE3xqD59-790" value="&lt;div data-darkreader-inline-bgcolor=&quot;&quot; data-darkreader-inline-color=&quot;&quot; style=&quot;color: rgb(204, 204, 204); background-color: rgb(31, 31, 31); font-family: &amp;quot;Droid Sans Mono&amp;quot;, &amp;quot;monospace&amp;quot;, monospace; font-weight: normal; font-size: 14px; line-height: 19px; white-space: pre; --darkreader-inline-color: #c8c3bc; --darkreader-inline-bgcolor: #17191a;&quot;&gt;&lt;div&gt;&lt;span data-darkreader-inline-color=&quot;&quot; style=&quot;color: rgb(204, 204, 204); --darkreader-inline-color: #c8c3bc;&quot;&gt;loc_PC&lt;/span&gt;&lt;/div&gt;&lt;/div&gt;" style="edgeLabel;html=1;align=center;verticalAlign=middle;resizable=0;points=[];" parent="8yJlIOZIeEiCtE3xqD59-789" vertex="1" connectable="0">
          <mxGeometry x="-0.2086" relative="1" as="geometry">
            <mxPoint as="offset" />
          </mxGeometry>
        </mxCell>
        <mxCell id="8yJlIOZIeEiCtE3xqD59-791" value="" style="endArrow=classic;html=1;rounded=0;entryX=0;entryY=0.843;entryDx=0;entryDy=0;entryPerimeter=0;exitX=1;exitY=0.5;exitDx=0;exitDy=0;fillColor=#60a917;strokeColor=#2D7600;" parent="1" source="8yJlIOZIeEiCtE3xqD59-758" target="8yJlIOZIeEiCtE3xqD59-737" edge="1">
          <mxGeometry width="50" height="50" relative="1" as="geometry">
            <mxPoint x="50" y="1350" as="sourcePoint" />
            <mxPoint x="100" y="1300" as="targetPoint" />
            <Array as="points">
              <mxPoint x="530" y="1063" />
              <mxPoint x="530" y="1200" />
              <mxPoint x="170" y="1200" />
              <mxPoint x="170" y="1460" />
            </Array>
          </mxGeometry>
        </mxCell>
        <mxCell id="8yJlIOZIeEiCtE3xqD59-792" value="&lt;div data-darkreader-inline-bgcolor=&quot;&quot; data-darkreader-inline-color=&quot;&quot; style=&quot;color: rgb(204, 204, 204); background-color: rgb(31, 31, 31); font-family: &amp;quot;Droid Sans Mono&amp;quot;, &amp;quot;monospace&amp;quot;, monospace; font-weight: normal; font-size: 14px; line-height: 19px; white-space: pre; --darkreader-inline-color: #c8c3bc; --darkreader-inline-bgcolor: #17191a;&quot;&gt;&lt;div&gt;&lt;span data-darkreader-inline-color=&quot;&quot; style=&quot;color: rgb(204, 204, 204); --darkreader-inline-color: #c8c3bc;&quot;&gt;loc_ir&lt;/span&gt;&lt;/div&gt;&lt;/div&gt;" style="edgeLabel;html=1;align=center;verticalAlign=middle;resizable=0;points=[];" parent="8yJlIOZIeEiCtE3xqD59-791" vertex="1" connectable="0">
          <mxGeometry x="-0.2007" y="-2" relative="1" as="geometry">
            <mxPoint as="offset" />
          </mxGeometry>
        </mxCell>
        <mxCell id="8yJlIOZIeEiCtE3xqD59-793" value="" style="endArrow=classic;html=1;rounded=0;entryX=-0.002;entryY=0.903;entryDx=0;entryDy=0;entryPerimeter=0;fillColor=#f8cecc;strokeColor=#b85450;" parent="1" target="8yJlIOZIeEiCtE3xqD59-750" edge="1">
          <mxGeometry width="50" height="50" relative="1" as="geometry">
            <mxPoint x="640" y="1400" as="sourcePoint" />
            <mxPoint x="490" y="1380" as="targetPoint" />
            <Array as="points">
              <mxPoint x="640" y="1736" />
            </Array>
          </mxGeometry>
        </mxCell>
        <mxCell id="8yJlIOZIeEiCtE3xqD59-794" value="" style="endArrow=classic;html=1;rounded=0;exitX=0.996;exitY=0.724;exitDx=0;exitDy=0;exitPerimeter=0;entryX=-0.001;entryY=0.905;entryDx=0;entryDy=0;entryPerimeter=0;fillColor=#f8cecc;strokeColor=#b85450;" parent="1" source="8yJlIOZIeEiCtE3xqD59-737" target="8yJlIOZIeEiCtE3xqD59-812" edge="1">
          <mxGeometry width="50" height="50" relative="1" as="geometry">
            <mxPoint x="490" y="1216" as="sourcePoint" />
            <mxPoint x="640" y="1136" as="targetPoint" />
            <Array as="points">
              <mxPoint x="630" y="1430" />
              <mxPoint x="630" y="1396" />
            </Array>
          </mxGeometry>
        </mxCell>
        <mxCell id="8yJlIOZIeEiCtE3xqD59-795" value="&lt;div data-darkreader-inline-bgcolor=&quot;&quot; data-darkreader-inline-color=&quot;&quot; style=&quot;color: rgb(204, 204, 204); background-color: rgb(31, 31, 31); font-family: &amp;quot;Droid Sans Mono&amp;quot;, &amp;quot;monospace&amp;quot;, monospace; font-weight: normal; font-size: 14px; line-height: 19px; white-space: pre; --darkreader-inline-color: #c8c3bc; --darkreader-inline-bgcolor: #17191a;&quot;&gt;&lt;div&gt;&lt;span data-darkreader-inline-color=&quot;&quot; style=&quot;color: rgb(204, 204, 204); --darkreader-inline-color: #c8c3bc;&quot;&gt;loc_data_o&lt;/span&gt;&lt;/div&gt;&lt;/div&gt;" style="edgeLabel;html=1;align=center;verticalAlign=middle;resizable=0;points=[];" parent="8yJlIOZIeEiCtE3xqD59-794" vertex="1" connectable="0">
          <mxGeometry x="-0.5912" y="-2" relative="1" as="geometry">
            <mxPoint as="offset" />
          </mxGeometry>
        </mxCell>
        <mxCell id="8yJlIOZIeEiCtE3xqD59-796" value="" style="endArrow=classic;html=1;rounded=0;entryX=-0.002;entryY=0.907;entryDx=0;entryDy=0;entryPerimeter=0;fillColor=#f8cecc;strokeColor=#b85450;" parent="1" target="8yJlIOZIeEiCtE3xqD59-821" edge="1">
          <mxGeometry width="50" height="50" relative="1" as="geometry">
            <mxPoint x="640" y="1400" as="sourcePoint" />
            <mxPoint x="640" y="1426" as="targetPoint" />
            <Array as="points">
              <mxPoint x="640" y="1087" />
            </Array>
          </mxGeometry>
        </mxCell>
        <mxCell id="8yJlIOZIeEiCtE3xqD59-797" value="" style="endArrow=classic;html=1;rounded=0;entryX=-0.001;entryY=0.202;entryDx=0;entryDy=0;entryPerimeter=0;exitX=1;exitY=0.5;exitDx=0;exitDy=0;fillColor=#76608a;strokeColor=#432D57;" parent="1" source="8yJlIOZIeEiCtE3xqD59-750" target="8yJlIOZIeEiCtE3xqD59-770" edge="1">
          <mxGeometry width="50" height="50" relative="1" as="geometry">
            <mxPoint x="920" y="1010" as="sourcePoint" />
            <mxPoint x="-240" y="1520" as="targetPoint" />
            <Array as="points">
              <mxPoint x="1040" y="1635" />
              <mxPoint x="1040" y="1490" />
              <mxPoint x="600" y="1490" />
              <mxPoint x="600" y="1530" />
              <mxPoint x="-90" y="1530" />
              <mxPoint x="-90" y="1620" />
            </Array>
          </mxGeometry>
        </mxCell>
        <mxCell id="8yJlIOZIeEiCtE3xqD59-798" value="&lt;div data-darkreader-inline-bgcolor=&quot;&quot; data-darkreader-inline-color=&quot;&quot; style=&quot;color: rgb(204, 204, 204); background-color: rgb(31, 31, 31); font-family: &amp;quot;Droid Sans Mono&amp;quot;, &amp;quot;monospace&amp;quot;, monospace; font-weight: normal; font-size: 14px; line-height: 19px; white-space: pre; --darkreader-inline-color: #c8c3bc; --darkreader-inline-bgcolor: #17191a;&quot;&gt;&lt;div&gt;&lt;span data-darkreader-inline-color=&quot;&quot; style=&quot;color: rgb(204, 204, 204); --darkreader-inline-color: #c8c3bc;&quot;&gt;loc_data_ram&lt;/span&gt;&lt;/div&gt;&lt;/div&gt;" style="edgeLabel;html=1;align=center;verticalAlign=middle;resizable=0;points=[];" parent="8yJlIOZIeEiCtE3xqD59-797" vertex="1" connectable="0">
          <mxGeometry x="-0.5379" relative="1" as="geometry">
            <mxPoint as="offset" />
          </mxGeometry>
        </mxCell>
        <mxCell id="8yJlIOZIeEiCtE3xqD59-799" value="" style="endArrow=classic;html=1;rounded=0;exitX=1.001;exitY=0.916;exitDx=0;exitDy=0;exitPerimeter=0;entryX=0;entryY=0.702;entryDx=0;entryDy=0;entryPerimeter=0;fillColor=#d5e8d4;strokeColor=#82b366;" parent="1" source="8yJlIOZIeEiCtE3xqD59-737" target="8yJlIOZIeEiCtE3xqD59-750" edge="1">
          <mxGeometry width="50" height="50" relative="1" as="geometry">
            <mxPoint x="140" y="1510" as="sourcePoint" />
            <mxPoint x="190" y="1460" as="targetPoint" />
            <Array as="points">
              <mxPoint x="550" y="1479" />
              <mxPoint x="550" y="1686" />
            </Array>
          </mxGeometry>
        </mxCell>
        <mxCell id="8yJlIOZIeEiCtE3xqD59-800" value="&lt;div data-darkreader-inline-bgcolor=&quot;&quot; data-darkreader-inline-color=&quot;&quot; style=&quot;color: rgb(204, 204, 204); background-color: rgb(31, 31, 31); font-family: &amp;quot;Droid Sans Mono&amp;quot;, &amp;quot;monospace&amp;quot;, monospace; font-weight: normal; font-size: 14px; line-height: 19px; white-space: pre; --darkreader-inline-color: #c8c3bc; --darkreader-inline-bgcolor: #17191a;&quot;&gt;&lt;div&gt;&lt;span data-darkreader-inline-color=&quot;&quot; style=&quot;color: rgb(204, 204, 204); --darkreader-inline-color: #c8c3bc;&quot;&gt;loc_addr_o&lt;/span&gt;&lt;/div&gt;&lt;/div&gt;" style="edgeLabel;html=1;align=center;verticalAlign=middle;resizable=0;points=[];" parent="8yJlIOZIeEiCtE3xqD59-799" vertex="1" connectable="0">
          <mxGeometry x="-0.08" relative="1" as="geometry">
            <mxPoint as="offset" />
          </mxGeometry>
        </mxCell>
        <mxCell id="8yJlIOZIeEiCtE3xqD59-801" value="" style="endArrow=classic;html=1;rounded=0;entryX=0;entryY=0.5;entryDx=0;entryDy=0;fillColor=#60a917;strokeColor=#2D7600;" parent="1" target="8yJlIOZIeEiCtE3xqD59-763" edge="1">
          <mxGeometry width="50" height="50" relative="1" as="geometry">
            <mxPoint x="550" y="1520" as="sourcePoint" />
            <mxPoint x="230" y="1510" as="targetPoint" />
            <Array as="points">
              <mxPoint x="-520" y="1520" />
              <mxPoint x="-520" y="1063" />
            </Array>
          </mxGeometry>
        </mxCell>
        <mxCell id="8yJlIOZIeEiCtE3xqD59-802" value="" style="endArrow=classic;html=1;rounded=0;entryX=-0.001;entryY=0.777;entryDx=0;entryDy=0;entryPerimeter=0;fillColor=#1ba1e2;strokeColor=#006EAF;" parent="1" target="8yJlIOZIeEiCtE3xqD59-770" edge="1">
          <mxGeometry width="50" height="50" relative="1" as="geometry">
            <mxPoint x="-110" y="980" as="sourcePoint" />
            <mxPoint x="-450" y="1860" as="targetPoint" />
            <Array as="points">
              <mxPoint x="-110" y="1764" />
            </Array>
          </mxGeometry>
        </mxCell>
        <mxCell id="8yJlIOZIeEiCtE3xqD59-803" value="" style="endArrow=classic;html=1;rounded=0;entryX=0;entryY=0.5;entryDx=0;entryDy=0;exitX=1.002;exitY=0.174;exitDx=0;exitDy=0;exitPerimeter=0;fillColor=#1ba1e2;strokeColor=#006EAF;" parent="1" source="8yJlIOZIeEiCtE3xqD59-763" target="8yJlIOZIeEiCtE3xqD59-821" edge="1">
          <mxGeometry width="50" height="50" relative="1" as="geometry">
            <mxPoint x="320" y="1300" as="sourcePoint" />
            <mxPoint x="370" y="1250" as="targetPoint" />
          </mxGeometry>
        </mxCell>
        <mxCell id="8yJlIOZIeEiCtE3xqD59-804" value="&lt;div data-darkreader-inline-bgcolor=&quot;&quot; data-darkreader-inline-color=&quot;&quot; style=&quot;color: rgb(204, 204, 204); background-color: rgb(31, 31, 31); font-family: &amp;quot;Droid Sans Mono&amp;quot;, &amp;quot;monospace&amp;quot;, monospace; font-weight: normal; font-size: 14px; line-height: 19px; white-space: pre; --darkreader-inline-color: #c8c3bc; --darkreader-inline-bgcolor: #17191a;&quot;&gt;&lt;div&gt;&lt;span data-darkreader-inline-color=&quot;&quot; style=&quot;color: rgb(204, 204, 204); --darkreader-inline-color: #c8c3bc;&quot;&gt;loc_cs_a&lt;/span&gt;&lt;/div&gt;&lt;/div&gt;" style="edgeLabel;html=1;align=center;verticalAlign=middle;resizable=0;points=[];" parent="8yJlIOZIeEiCtE3xqD59-803" vertex="1" connectable="0">
          <mxGeometry x="-0.6951" relative="1" as="geometry">
            <mxPoint as="offset" />
          </mxGeometry>
        </mxCell>
        <mxCell id="8yJlIOZIeEiCtE3xqD59-805" value="" style="endArrow=classic;html=1;rounded=0;entryX=0;entryY=0.5;entryDx=0;entryDy=0;" parent="1" target="8yJlIOZIeEiCtE3xqD59-812" edge="1">
          <mxGeometry width="50" height="50" relative="1" as="geometry">
            <mxPoint x="-130" y="1160" as="sourcePoint" />
            <mxPoint x="755" y="1325" as="targetPoint" />
            <Array as="points">
              <mxPoint x="680" y="1160" />
              <mxPoint x="680" y="1295" />
            </Array>
          </mxGeometry>
        </mxCell>
        <mxCell id="8yJlIOZIeEiCtE3xqD59-806" value="&lt;div data-darkreader-inline-bgcolor=&quot;&quot; data-darkreader-inline-color=&quot;&quot; style=&quot;color: rgb(204, 204, 204); background-color: rgb(31, 31, 31); font-family: &amp;quot;Droid Sans Mono&amp;quot;, &amp;quot;monospace&amp;quot;, monospace; font-weight: normal; font-size: 14px; line-height: 19px; white-space: pre; --darkreader-inline-color: #c8c3bc; --darkreader-inline-bgcolor: #17191a;&quot;&gt;&lt;div&gt;&lt;span data-darkreader-inline-color=&quot;&quot; style=&quot;color: rgb(204, 204, 204); --darkreader-inline-color: #c8c3bc;&quot;&gt;loc_cs_b&lt;/span&gt;&lt;/div&gt;&lt;/div&gt;" style="edgeLabel;html=1;align=center;verticalAlign=middle;resizable=0;points=[];" parent="8yJlIOZIeEiCtE3xqD59-805" vertex="1" connectable="0">
          <mxGeometry x="-0.8027" y="2" relative="1" as="geometry">
            <mxPoint as="offset" />
          </mxGeometry>
        </mxCell>
        <mxCell id="8yJlIOZIeEiCtE3xqD59-807" value="" style="endArrow=classic;html=1;rounded=0;entryX=0;entryY=0.922;entryDx=0;entryDy=0;entryPerimeter=0;exitX=1;exitY=0.5;exitDx=0;exitDy=0;" parent="1" source="8yJlIOZIeEiCtE3xqD59-763" target="8yJlIOZIeEiCtE3xqD59-770" edge="1">
          <mxGeometry width="50" height="50" relative="1" as="geometry">
            <mxPoint x="-310" y="1085" as="sourcePoint" />
            <mxPoint x="-130" y="1694" as="targetPoint" />
            <Array as="points">
              <mxPoint x="-130" y="1063" />
              <mxPoint x="-130" y="1800" />
            </Array>
          </mxGeometry>
        </mxCell>
        <mxCell id="8yJlIOZIeEiCtE3xqD59-808" value="" style="endArrow=classic;html=1;rounded=0;entryX=0;entryY=0;entryDx=0;entryDy=0;entryPerimeter=0;exitX=0.998;exitY=0.839;exitDx=0;exitDy=0;exitPerimeter=0;fillColor=#a0522d;strokeColor=#6D1F00;" parent="1" source="8yJlIOZIeEiCtE3xqD59-763" target="8yJlIOZIeEiCtE3xqD59-777" edge="1">
          <mxGeometry width="50" height="50" relative="1" as="geometry">
            <mxPoint x="-310" y="1170" as="sourcePoint" />
            <mxPoint x="-260" y="1710" as="targetPoint" />
            <Array as="points">
              <mxPoint x="-150" y="1147" />
              <mxPoint x="-150" y="1728" />
            </Array>
          </mxGeometry>
        </mxCell>
        <mxCell id="8yJlIOZIeEiCtE3xqD59-809" value="" style="endArrow=classic;html=1;rounded=0;entryX=-0.001;entryY=0.306;entryDx=0;entryDy=0;entryPerimeter=0;fillColor=#a0522d;strokeColor=#6D1F00;" parent="1" target="8yJlIOZIeEiCtE3xqD59-750" edge="1">
          <mxGeometry width="50" height="50" relative="1" as="geometry">
            <mxPoint x="-150" y="1550" as="sourcePoint" />
            <mxPoint x="650" y="1540" as="targetPoint" />
            <Array as="points">
              <mxPoint x="410" y="1550" />
              <mxPoint x="410" y="1587" />
            </Array>
          </mxGeometry>
        </mxCell>
        <mxCell id="8yJlIOZIeEiCtE3xqD59-810" value="&lt;div data-darkreader-inline-bgcolor=&quot;&quot; data-darkreader-inline-color=&quot;&quot; style=&quot;color: rgb(204, 204, 204); background-color: rgb(31, 31, 31); font-family: &amp;quot;Droid Sans Mono&amp;quot;, &amp;quot;monospace&amp;quot;, monospace; font-weight: normal; font-size: 14px; line-height: 19px; white-space: pre; --darkreader-inline-color: #c8c3bc; --darkreader-inline-bgcolor: #17191a;&quot;&gt;&lt;div&gt;&lt;span data-darkreader-inline-color=&quot;&quot; style=&quot;color: rgb(204, 204, 204); --darkreader-inline-color: #c8c3bc;&quot;&gt;loc_cs_ram&lt;/span&gt;&lt;/div&gt;&lt;/div&gt;" style="edgeLabel;html=1;align=center;verticalAlign=middle;resizable=0;points=[];" parent="8yJlIOZIeEiCtE3xqD59-809" vertex="1" connectable="0">
          <mxGeometry x="-0.5848" y="-3" relative="1" as="geometry">
            <mxPoint as="offset" />
          </mxGeometry>
        </mxCell>
        <mxCell id="8yJlIOZIeEiCtE3xqD59-811" value="" style="group" parent="1" vertex="1" connectable="0">
          <mxGeometry x="745.0056816890524" y="1170" width="249.99863662189534" height="250" as="geometry" />
        </mxCell>
        <mxCell id="8yJlIOZIeEiCtE3xqD59-812" value="Output_Register_b" style="rounded=0;whiteSpace=wrap;html=1;fontSize=24;verticalAlign=top;" parent="8yJlIOZIeEiCtE3xqD59-811" vertex="1">
          <mxGeometry x="0.004318310947610371" width="249.99431831094773" height="250" as="geometry" />
        </mxCell>
        <mxCell id="8yJlIOZIeEiCtE3xqD59-813" value="clk_i" style="edgeLabel;html=1;align=left;verticalAlign=middle;resizable=0;points=[];" parent="8yJlIOZIeEiCtE3xqD59-811" vertex="1" connectable="0">
          <mxGeometry y="25" as="geometry" />
        </mxCell>
        <mxCell id="8yJlIOZIeEiCtE3xqD59-814" value="reset_i" style="edgeLabel;html=1;align=left;verticalAlign=middle;resizable=0;points=[];" parent="8yJlIOZIeEiCtE3xqD59-811" vertex="1" connectable="0">
          <mxGeometry y="75" as="geometry" />
        </mxCell>
        <mxCell id="8yJlIOZIeEiCtE3xqD59-815" value="cs_i" style="edgeLabel;html=1;align=left;verticalAlign=middle;resizable=0;points=[];" parent="8yJlIOZIeEiCtE3xqD59-811" vertex="1" connectable="0">
          <mxGeometry y="125" as="geometry" />
        </mxCell>
        <mxCell id="8yJlIOZIeEiCtE3xqD59-816" value="load_i" style="edgeLabel;html=1;align=left;verticalAlign=middle;resizable=0;points=[];" parent="8yJlIOZIeEiCtE3xqD59-811" vertex="1" connectable="0">
          <mxGeometry y="175" as="geometry" />
        </mxCell>
        <mxCell id="8yJlIOZIeEiCtE3xqD59-817" value="&lt;div&gt;data_i(8)&lt;/div&gt;" style="edgeLabel;html=1;align=left;verticalAlign=middle;resizable=0;points=[];" parent="8yJlIOZIeEiCtE3xqD59-811" vertex="1" connectable="0">
          <mxGeometry y="225" as="geometry" />
        </mxCell>
        <mxCell id="8yJlIOZIeEiCtE3xqD59-818" value="&lt;div&gt;data_o(8)&lt;/div&gt;" style="edgeLabel;html=1;align=right;verticalAlign=middle;resizable=0;points=[];" parent="8yJlIOZIeEiCtE3xqD59-811" vertex="1" connectable="0">
          <mxGeometry x="249.99431831094762" y="125" as="geometry" />
        </mxCell>
        <mxCell id="8yJlIOZIeEiCtE3xqD59-819" style="edgeStyle=orthogonalEdgeStyle;rounded=0;orthogonalLoop=1;jettySize=auto;html=1;exitX=0.5;exitY=1;exitDx=0;exitDy=0;" parent="8yJlIOZIeEiCtE3xqD59-811" source="8yJlIOZIeEiCtE3xqD59-812" target="8yJlIOZIeEiCtE3xqD59-812" edge="1">
          <mxGeometry relative="1" as="geometry" />
        </mxCell>
        <mxCell id="8yJlIOZIeEiCtE3xqD59-820" value="" style="group" parent="1" vertex="1" connectable="0">
          <mxGeometry x="745.0056816890524" y="860" width="249.99863662189534" height="250" as="geometry" />
        </mxCell>
        <mxCell id="8yJlIOZIeEiCtE3xqD59-821" value="Output_Register_a" style="rounded=0;whiteSpace=wrap;html=1;fontSize=24;verticalAlign=top;" parent="8yJlIOZIeEiCtE3xqD59-820" vertex="1">
          <mxGeometry x="0.004318310947610371" width="249.99431831094773" height="250" as="geometry" />
        </mxCell>
        <mxCell id="8yJlIOZIeEiCtE3xqD59-822" value="clk_i" style="edgeLabel;html=1;align=left;verticalAlign=middle;resizable=0;points=[];" parent="8yJlIOZIeEiCtE3xqD59-820" vertex="1" connectable="0">
          <mxGeometry y="25" as="geometry" />
        </mxCell>
        <mxCell id="8yJlIOZIeEiCtE3xqD59-823" value="reset_i" style="edgeLabel;html=1;align=left;verticalAlign=middle;resizable=0;points=[];" parent="8yJlIOZIeEiCtE3xqD59-820" vertex="1" connectable="0">
          <mxGeometry y="75" as="geometry" />
        </mxCell>
        <mxCell id="8yJlIOZIeEiCtE3xqD59-824" value="cs_i" style="edgeLabel;html=1;align=left;verticalAlign=middle;resizable=0;points=[];" parent="8yJlIOZIeEiCtE3xqD59-820" vertex="1" connectable="0">
          <mxGeometry y="125" as="geometry" />
        </mxCell>
        <mxCell id="8yJlIOZIeEiCtE3xqD59-825" value="load_i" style="edgeLabel;html=1;align=left;verticalAlign=middle;resizable=0;points=[];" parent="8yJlIOZIeEiCtE3xqD59-820" vertex="1" connectable="0">
          <mxGeometry y="175" as="geometry" />
        </mxCell>
        <mxCell id="8yJlIOZIeEiCtE3xqD59-826" value="&lt;div&gt;data_i(8)&lt;/div&gt;" style="edgeLabel;html=1;align=left;verticalAlign=middle;resizable=0;points=[];" parent="8yJlIOZIeEiCtE3xqD59-820" vertex="1" connectable="0">
          <mxGeometry y="225" as="geometry" />
        </mxCell>
        <mxCell id="8yJlIOZIeEiCtE3xqD59-827" value="&lt;div&gt;data_o(8)&lt;/div&gt;" style="edgeLabel;html=1;align=right;verticalAlign=middle;resizable=0;points=[];" parent="8yJlIOZIeEiCtE3xqD59-820" vertex="1" connectable="0">
          <mxGeometry x="249.99431831094762" y="125" as="geometry" />
        </mxCell>
        <mxCell id="8yJlIOZIeEiCtE3xqD59-828" style="edgeStyle=orthogonalEdgeStyle;rounded=0;orthogonalLoop=1;jettySize=auto;html=1;exitX=0.5;exitY=1;exitDx=0;exitDy=0;" parent="8yJlIOZIeEiCtE3xqD59-820" source="8yJlIOZIeEiCtE3xqD59-821" target="8yJlIOZIeEiCtE3xqD59-821" edge="1">
          <mxGeometry relative="1" as="geometry" />
        </mxCell>
        <mxCell id="8yJlIOZIeEiCtE3xqD59-829" value="" style="endArrow=classic;html=1;rounded=0;exitX=0.002;exitY=0.568;exitDx=0;exitDy=0;exitPerimeter=0;entryX=-0.002;entryY=0.105;entryDx=0;entryDy=0;entryPerimeter=0;fillColor=#d5e8d4;strokeColor=#82b366;" parent="1" source="8yJlIOZIeEiCtE3xqD59-730" target="8yJlIOZIeEiCtE3xqD59-821" edge="1">
          <mxGeometry width="50" height="50" relative="1" as="geometry">
            <mxPoint x="190" y="1380" as="sourcePoint" />
            <mxPoint x="240" y="1330" as="targetPoint" />
          </mxGeometry>
        </mxCell>
        <mxCell id="8yJlIOZIeEiCtE3xqD59-830" value="" style="endArrow=classic;html=1;rounded=0;entryX=-0.002;entryY=0.163;entryDx=0;entryDy=0;entryPerimeter=0;fillColor=#d5e8d4;strokeColor=#82b366;" parent="1" target="8yJlIOZIeEiCtE3xqD59-737" edge="1">
          <mxGeometry width="50" height="50" relative="1" as="geometry">
            <mxPoint x="130" y="885" as="sourcePoint" />
            <mxPoint x="90" y="1210" as="targetPoint" />
            <Array as="points">
              <mxPoint x="130" y="1290" />
            </Array>
          </mxGeometry>
        </mxCell>
        <mxCell id="8yJlIOZIeEiCtE3xqD59-831" value="" style="endArrow=classic;html=1;rounded=0;entryX=-0.001;entryY=0.104;entryDx=0;entryDy=0;entryPerimeter=0;fillColor=#d5e8d4;strokeColor=#82b366;" parent="1" target="8yJlIOZIeEiCtE3xqD59-812" edge="1">
          <mxGeometry width="50" height="50" relative="1" as="geometry">
            <mxPoint x="670" y="886" as="sourcePoint" />
            <mxPoint x="740" y="1110" as="targetPoint" />
            <Array as="points">
              <mxPoint x="670" y="1196" />
            </Array>
          </mxGeometry>
        </mxCell>
        <mxCell id="8yJlIOZIeEiCtE3xqD59-832" value="" style="endArrow=classic;html=1;rounded=0;entryX=-0.006;entryY=0.107;entryDx=0;entryDy=0;entryPerimeter=0;fillColor=#d5e8d4;strokeColor=#82b366;" parent="1" target="8yJlIOZIeEiCtE3xqD59-750" edge="1">
          <mxGeometry width="50" height="50" relative="1" as="geometry">
            <mxPoint x="670" y="1190" as="sourcePoint" />
            <mxPoint x="720" y="1270" as="targetPoint" />
            <Array as="points">
              <mxPoint x="670" y="1537" />
            </Array>
          </mxGeometry>
        </mxCell>
        <mxCell id="8yJlIOZIeEiCtE3xqD59-833" value="" style="endArrow=classic;html=1;rounded=0;exitX=0.005;exitY=0.48;exitDx=0;exitDy=0;exitPerimeter=0;fillColor=#6a00ff;strokeColor=#3700CC;entryX=0.001;entryY=0.327;entryDx=0;entryDy=0;entryPerimeter=0;" parent="1" source="8yJlIOZIeEiCtE3xqD59-731" target="8yJlIOZIeEiCtE3xqD59-737" edge="1">
          <mxGeometry width="50" height="50" relative="1" as="geometry">
            <mxPoint x="-290" y="1380" as="sourcePoint" />
            <mxPoint x="261" y="1349" as="targetPoint" />
            <Array as="points">
              <mxPoint x="-340" y="1198" />
              <mxPoint x="-340" y="1332" />
            </Array>
          </mxGeometry>
        </mxCell>
        <mxCell id="8yJlIOZIeEiCtE3xqD59-834" value="" style="endArrow=classic;html=1;rounded=0;entryX=0.001;entryY=0.301;entryDx=0;entryDy=0;entryPerimeter=0;fillColor=#6a00ff;strokeColor=#3700CC;" parent="1" target="8yJlIOZIeEiCtE3xqD59-812" edge="1">
          <mxGeometry width="50" height="50" relative="1" as="geometry">
            <mxPoint x="190" y="1330" as="sourcePoint" />
            <mxPoint x="640" y="1260" as="targetPoint" />
            <Array as="points">
              <mxPoint x="190" y="1245" />
            </Array>
          </mxGeometry>
        </mxCell>
        <mxCell id="8yJlIOZIeEiCtE3xqD59-835" value="" style="endArrow=classic;html=1;rounded=0;entryX=-0.002;entryY=0.3;entryDx=0;entryDy=0;entryPerimeter=0;fillColor=#6a00ff;strokeColor=#3700CC;" parent="1" target="8yJlIOZIeEiCtE3xqD59-821" edge="1">
          <mxGeometry width="50" height="50" relative="1" as="geometry">
            <mxPoint x="710" y="1245" as="sourcePoint" />
            <mxPoint x="710" y="1150" as="targetPoint" />
            <Array as="points">
              <mxPoint x="710" y="935" />
            </Array>
          </mxGeometry>
        </mxCell>
        <mxCell id="8yJlIOZIeEiCtE3xqD59-836" value="" style="endArrow=classic;html=1;rounded=0;entryX=-0.01;entryY=0.528;entryDx=0;entryDy=0;entryPerimeter=0;exitX=1;exitY=0.5;exitDx=0;exitDy=0;" parent="1" source="8yJlIOZIeEiCtE3xqD59-821" target="8yJlIOZIeEiCtE3xqD59-734" edge="1">
          <mxGeometry width="50" height="50" relative="1" as="geometry">
            <mxPoint x="1060" y="1020" as="sourcePoint" />
            <mxPoint x="1110" y="970" as="targetPoint" />
          </mxGeometry>
        </mxCell>
        <mxCell id="8yJlIOZIeEiCtE3xqD59-837" value="" style="endArrow=classic;html=1;rounded=0;entryX=-0.015;entryY=0.507;entryDx=0;entryDy=0;entryPerimeter=0;exitX=1;exitY=0.5;exitDx=0;exitDy=0;" parent="1" source="8yJlIOZIeEiCtE3xqD59-812" target="8yJlIOZIeEiCtE3xqD59-735" edge="1">
          <mxGeometry width="50" height="50" relative="1" as="geometry">
            <mxPoint x="1100" y="1320" as="sourcePoint" />
            <mxPoint x="1150" y="1270" as="targetPoint" />
          </mxGeometry>
        </mxCell>
        <mxCell id="8yJlIOZIeEiCtE3xqD59-838" value="" style="endArrow=classic;html=1;rounded=0;entryX=0;entryY=0.5;entryDx=0;entryDy=0;fillColor=#f0a30a;strokeColor=#BD7000;" parent="1" target="8yJlIOZIeEiCtE3xqD59-750" edge="1">
          <mxGeometry width="50" height="50" relative="1" as="geometry">
            <mxPoint x="610" y="1350" as="sourcePoint" />
            <mxPoint x="640" y="1430" as="targetPoint" />
            <Array as="points">
              <mxPoint x="610" y="1635" />
            </Array>
          </mxGeometry>
        </mxCell>
        <mxCell id="8yJlIOZIeEiCtE3xqD59-839" value="" style="group" parent="1" vertex="1" connectable="0">
          <mxGeometry x="300" y="1760" width="250" height="190" as="geometry" />
        </mxCell>
        <mxCell id="8yJlIOZIeEiCtE3xqD59-840" value="Stack" style="rounded=0;whiteSpace=wrap;html=1;container=0;verticalAlign=top;fontSize=24;" parent="8yJlIOZIeEiCtE3xqD59-839" vertex="1">
          <mxGeometry x="0.003881830316721846" width="249.99611816968326" height="190" as="geometry" />
        </mxCell>
        <mxCell id="8yJlIOZIeEiCtE3xqD59-841" value="&lt;div&gt;addr_o (8)&lt;/div&gt;" style="edgeLabel;html=1;align=right;verticalAlign=middle;resizable=0;points=[];container=0;" parent="8yJlIOZIeEiCtE3xqD59-839" vertex="1" connectable="0">
          <mxGeometry x="244.7941537667271" y="94.9992631554951" as="geometry" />
        </mxCell>
        <mxCell id="8yJlIOZIeEiCtE3xqD59-842" value="addr_i (8)" style="edgeLabel;html=1;align=left;verticalAlign=middle;resizable=0;points=[];container=0;" parent="8yJlIOZIeEiCtE3xqD59-839" vertex="1" connectable="0">
          <mxGeometry x="0.007817867957110139" y="50.00346427418533" as="geometry" />
        </mxCell>
        <mxCell id="8yJlIOZIeEiCtE3xqD59-843" value="&lt;div&gt;push_pop_i (2)&lt;br&gt;&lt;/div&gt;" style="edgeLabel;html=1;align=left;verticalAlign=middle;resizable=0;points=[];container=0;" parent="8yJlIOZIeEiCtE3xqD59-839" vertex="1" connectable="0">
          <mxGeometry y="80" as="geometry" />
        </mxCell>
        <mxCell id="8yJlIOZIeEiCtE3xqD59-844" value="clk_i" style="edgeLabel;html=1;align=left;verticalAlign=middle;resizable=0;points=[];container=0;" parent="8yJlIOZIeEiCtE3xqD59-839" vertex="1" connectable="0">
          <mxGeometry x="0.007817867957111702" y="110" as="geometry" />
        </mxCell>
        <mxCell id="8yJlIOZIeEiCtE3xqD59-845" value="reset_i" style="edgeLabel;html=1;align=left;verticalAlign=middle;resizable=0;points=[];container=0;" parent="8yJlIOZIeEiCtE3xqD59-839" vertex="1" connectable="0">
          <mxGeometry x="0.007817867957101043" y="140" as="geometry" />
        </mxCell>
        <mxCell id="8yJlIOZIeEiCtE3xqD59-846" value="Interupt" style="edgeLabel;html=1;align=left;verticalAlign=middle;resizable=0;points=[];" parent="8yJlIOZIeEiCtE3xqD59-839" vertex="1" connectable="0">
          <mxGeometry x="-0.0005134117533316385" y="170" as="geometry" />
        </mxCell>
        <mxCell id="8yJlIOZIeEiCtE3xqD59-847" value="" style="endArrow=classic;html=1;rounded=0;entryX=0;entryY=0.75;entryDx=0;entryDy=0;fillColor=#e1d5e7;strokeColor=#3700CC;" parent="1" target="8yJlIOZIeEiCtE3xqD59-840" edge="1">
          <mxGeometry width="50" height="50" relative="1" as="geometry">
            <mxPoint x="-540" y="1197" as="sourcePoint" />
            <mxPoint x="-540" y="1380" as="targetPoint" />
            <Array as="points">
              <mxPoint x="-540" y="1700" />
              <mxPoint x="-540" y="1900" />
              <mxPoint x="-260" y="1900" />
            </Array>
          </mxGeometry>
        </mxCell>
        <mxCell id="8yJlIOZIeEiCtE3xqD59-848" value="" style="endArrow=classic;html=1;rounded=0;entryX=0.001;entryY=0.585;entryDx=0;entryDy=0;entryPerimeter=0;strokeColor=#82B366;" parent="1" target="8yJlIOZIeEiCtE3xqD59-840" edge="1">
          <mxGeometry width="50" height="50" relative="1" as="geometry">
            <mxPoint x="-660" y="882" as="sourcePoint" />
            <mxPoint x="-160" y="1370" as="targetPoint" />
            <Array as="points">
              <mxPoint x="-660" y="1390" />
              <mxPoint x="-250" y="1390" />
              <mxPoint x="-250" y="1871" />
            </Array>
          </mxGeometry>
        </mxCell>
        <mxCell id="8yJlIOZIeEiCtE3xqD59-849" value="" style="endArrow=classic;html=1;rounded=0;entryX=-0.01;entryY=0.423;entryDx=0;entryDy=0;entryPerimeter=0;exitX=1.008;exitY=0.163;exitDx=0;exitDy=0;exitPerimeter=0;fillColor=#dae8fc;strokeColor=#6c8ebf;" parent="1" source="8yJlIOZIeEiCtE3xqD59-737" target="8yJlIOZIeEiCtE3xqD59-840" edge="1">
          <mxGeometry width="50" height="50" relative="1" as="geometry">
            <mxPoint x="370" y="1540" as="sourcePoint" />
            <mxPoint x="420" y="1490" as="targetPoint" />
            <Array as="points">
              <mxPoint x="620" y="1290" />
              <mxPoint x="620" y="1600" />
              <mxPoint x="240" y="1600" />
              <mxPoint x="240" y="1840" />
            </Array>
          </mxGeometry>
        </mxCell>
        <mxCell id="8yJlIOZIeEiCtE3xqD59-850" style="edgeStyle=orthogonalEdgeStyle;rounded=0;orthogonalLoop=1;jettySize=auto;html=1;exitX=1;exitY=0.5;exitDx=0;exitDy=0;entryX=0;entryY=0.5;entryDx=0;entryDy=0;" parent="1" source="8yJlIOZIeEiCtE3xqD59-840" target="8yJlIOZIeEiCtE3xqD59-737" edge="1">
          <mxGeometry relative="1" as="geometry">
            <Array as="points">
              <mxPoint x="570" y="1855" />
              <mxPoint x="570" y="1630" />
              <mxPoint x="230" y="1630" />
              <mxPoint x="230" y="1375" />
            </Array>
          </mxGeometry>
        </mxCell>
        <mxCell id="8yJlIOZIeEiCtE3xqD59-851" value="" style="endArrow=classic;html=1;rounded=0;entryX=0;entryY=0.25;entryDx=0;entryDy=0;strokeColor=#A50040;" parent="1" target="8yJlIOZIeEiCtE3xqD59-840" edge="1">
          <mxGeometry width="50" height="50" relative="1" as="geometry">
            <mxPoint x="560" y="1330" as="sourcePoint" />
            <mxPoint x="630" y="1330" as="targetPoint" />
            <Array as="points">
              <mxPoint x="560" y="1560" />
              <mxPoint x="260" y="1560" />
              <mxPoint x="260" y="1808" />
            </Array>
          </mxGeometry>
        </mxCell>
        <mxCell id="8yJlIOZIeEiCtE3xqD59-852" value="&lt;span style=&quot;font-size: 24px;&quot;&gt;Interupt&lt;/span&gt;" style="text;html=1;align=left;verticalAlign=middle;resizable=0;points=[];autosize=1;strokeColor=none;fillColor=none;flipV=0;flipH=1;" parent="1" vertex="1">
          <mxGeometry x="-770" y="1430" width="100" height="40" as="geometry" />
        </mxCell>
        <mxCell id="8yJlIOZIeEiCtE3xqD59-853" value="" style="endArrow=classic;html=1;rounded=0;entryX=0.002;entryY=0.603;entryDx=0;entryDy=0;entryPerimeter=0;exitX=0.042;exitY=0.524;exitDx=0;exitDy=0;exitPerimeter=0;" parent="1" source="8yJlIOZIeEiCtE3xqD59-852" target="8yJlIOZIeEiCtE3xqD59-737" edge="1">
          <mxGeometry width="50" height="50" relative="1" as="geometry">
            <mxPoint x="40" y="1430" as="sourcePoint" />
            <mxPoint x="90" y="1380" as="targetPoint" />
            <Array as="points">
              <mxPoint x="-210" y="1450" />
              <mxPoint x="-210" y="1401" />
            </Array>
          </mxGeometry>
        </mxCell>
        <mxCell id="8yJlIOZIeEiCtE3xqD59-854" value="" style="endArrow=classic;html=1;rounded=0;entryX=-0.002;entryY=0.905;entryDx=0;entryDy=0;entryPerimeter=0;" parent="1" target="8yJlIOZIeEiCtE3xqD59-840" edge="1">
          <mxGeometry width="50" height="50" relative="1" as="geometry">
            <mxPoint x="-490" y="1450" as="sourcePoint" />
            <mxPoint x="-440" y="1680" as="targetPoint" />
            <Array as="points">
              <mxPoint x="-490" y="1930" />
            </Array>
          </mxGeometry>
        </mxCell>
        <mxCell id="hls_KQ-qskWKPMjdaMdi-1" value="" style="group" vertex="1" connectable="0" parent="1">
          <mxGeometry x="749.9956816890524" y="1850" width="249.99863662189534" height="250" as="geometry" />
        </mxCell>
        <mxCell id="hls_KQ-qskWKPMjdaMdi-2" value="&lt;div&gt;Output_Register_c&lt;/div&gt;" style="rounded=0;whiteSpace=wrap;html=1;fontSize=24;verticalAlign=top;" vertex="1" parent="hls_KQ-qskWKPMjdaMdi-1">
          <mxGeometry x="0.004318310947610371" width="249.99431831094773" height="250" as="geometry" />
        </mxCell>
        <mxCell id="hls_KQ-qskWKPMjdaMdi-3" value="clk_i" style="edgeLabel;html=1;align=left;verticalAlign=middle;resizable=0;points=[];" vertex="1" connectable="0" parent="hls_KQ-qskWKPMjdaMdi-1">
          <mxGeometry y="25" as="geometry" />
        </mxCell>
        <mxCell id="hls_KQ-qskWKPMjdaMdi-4" value="reset_i" style="edgeLabel;html=1;align=left;verticalAlign=middle;resizable=0;points=[];" vertex="1" connectable="0" parent="hls_KQ-qskWKPMjdaMdi-1">
          <mxGeometry y="75" as="geometry" />
        </mxCell>
        <mxCell id="hls_KQ-qskWKPMjdaMdi-5" value="cs_i" style="edgeLabel;html=1;align=left;verticalAlign=middle;resizable=0;points=[];" vertex="1" connectable="0" parent="hls_KQ-qskWKPMjdaMdi-1">
          <mxGeometry y="125" as="geometry" />
        </mxCell>
        <mxCell id="hls_KQ-qskWKPMjdaMdi-6" value="load_i" style="edgeLabel;html=1;align=left;verticalAlign=middle;resizable=0;points=[];" vertex="1" connectable="0" parent="hls_KQ-qskWKPMjdaMdi-1">
          <mxGeometry y="175" as="geometry" />
        </mxCell>
        <mxCell id="hls_KQ-qskWKPMjdaMdi-7" value="&lt;div&gt;data_i(8)&lt;/div&gt;" style="edgeLabel;html=1;align=left;verticalAlign=middle;resizable=0;points=[];" vertex="1" connectable="0" parent="hls_KQ-qskWKPMjdaMdi-1">
          <mxGeometry y="225" as="geometry" />
        </mxCell>
        <mxCell id="hls_KQ-qskWKPMjdaMdi-8" value="&lt;div&gt;data_o(8)&lt;/div&gt;" style="edgeLabel;html=1;align=right;verticalAlign=middle;resizable=0;points=[];" vertex="1" connectable="0" parent="hls_KQ-qskWKPMjdaMdi-1">
          <mxGeometry x="249.99431831094762" y="125" as="geometry" />
        </mxCell>
        <mxCell id="hls_KQ-qskWKPMjdaMdi-9" style="edgeStyle=orthogonalEdgeStyle;rounded=0;orthogonalLoop=1;jettySize=auto;html=1;exitX=0.5;exitY=1;exitDx=0;exitDy=0;" edge="1" parent="hls_KQ-qskWKPMjdaMdi-1" source="hls_KQ-qskWKPMjdaMdi-2" target="hls_KQ-qskWKPMjdaMdi-2">
          <mxGeometry relative="1" as="geometry" />
        </mxCell>
        <mxCell id="hls_KQ-qskWKPMjdaMdi-10" value="&lt;div&gt;&lt;font style=&quot;font-size: 24px;&quot;&gt;port_c_o(8)&lt;/font&gt;&lt;/div&gt;" style="text;html=1;align=right;verticalAlign=middle;resizable=0;points=[];autosize=1;strokeColor=none;fillColor=none;" vertex="1" parent="1">
          <mxGeometry x="1010" y="1955" width="150" height="40" as="geometry" />
        </mxCell>
        <mxCell id="hls_KQ-qskWKPMjdaMdi-11" value="" style="endArrow=classic;html=1;rounded=0;entryX=0;entryY=0.915;entryDx=0;entryDy=0;entryPerimeter=0;fillColor=#f8cecc;strokeColor=#b85450;" edge="1" parent="1" target="hls_KQ-qskWKPMjdaMdi-2">
          <mxGeometry width="50" height="50" relative="1" as="geometry">
            <mxPoint x="640" y="1710" as="sourcePoint" />
            <mxPoint x="680" y="1850" as="targetPoint" />
            <Array as="points">
              <mxPoint x="640" y="2079" />
            </Array>
          </mxGeometry>
        </mxCell>
        <mxCell id="hls_KQ-qskWKPMjdaMdi-12" value="" style="endArrow=classic;html=1;rounded=0;entryX=-0.008;entryY=0.705;entryDx=0;entryDy=0;entryPerimeter=0;fillColor=#ffe6cc;strokeColor=#d79b00;" edge="1" parent="1" target="hls_KQ-qskWKPMjdaMdi-2">
          <mxGeometry width="50" height="50" relative="1" as="geometry">
            <mxPoint x="610" y="1630" as="sourcePoint" />
            <mxPoint x="700" y="1850" as="targetPoint" />
            <Array as="points">
              <mxPoint x="610" y="2026" />
            </Array>
          </mxGeometry>
        </mxCell>
        <mxCell id="hls_KQ-qskWKPMjdaMdi-13" value="" style="endArrow=classic;html=1;rounded=0;entryX=0.009;entryY=0.115;entryDx=0;entryDy=0;entryPerimeter=0;fillColor=#d5e8d4;strokeColor=#82b366;" edge="1" parent="1" target="hls_KQ-qskWKPMjdaMdi-2">
          <mxGeometry width="50" height="50" relative="1" as="geometry">
            <mxPoint x="670" y="1520" as="sourcePoint" />
            <mxPoint x="770" y="1780" as="targetPoint" />
            <Array as="points">
              <mxPoint x="670" y="1880" />
            </Array>
          </mxGeometry>
        </mxCell>
        <mxCell id="hls_KQ-qskWKPMjdaMdi-14" value="" style="endArrow=classic;html=1;rounded=0;entryX=-0.008;entryY=0.309;entryDx=0;entryDy=0;entryPerimeter=0;fillColor=#6a00ff;strokeColor=#3700CC;" edge="1" parent="1" target="hls_KQ-qskWKPMjdaMdi-2">
          <mxGeometry width="50" height="50" relative="1" as="geometry">
            <mxPoint x="710" y="1240" as="sourcePoint" />
            <mxPoint x="790" y="1460" as="targetPoint" />
            <Array as="points">
              <mxPoint x="710" y="1927" />
            </Array>
          </mxGeometry>
        </mxCell>
        <mxCell id="hls_KQ-qskWKPMjdaMdi-23" value="" style="endArrow=classic;html=1;rounded=0;exitX=1.007;exitY=0.67;exitDx=0;exitDy=0;exitPerimeter=0;" edge="1" parent="1" source="8yJlIOZIeEiCtE3xqD59-763">
          <mxGeometry width="50" height="50" relative="1" as="geometry">
            <mxPoint x="-180" y="1260" as="sourcePoint" />
            <mxPoint x="750" y="1980" as="targetPoint" />
            <Array as="points">
              <mxPoint x="-170" y="1105" />
              <mxPoint x="-180" y="1970" />
            </Array>
          </mxGeometry>
        </mxCell>
      </root>
    </mxGraphModel>
  </diagram>
</mxfile>
